<mxfile host="app.diagrams.net" agent="Mozilla/5.0 (Macintosh; Intel Mac OS X 10_15_7) AppleWebKit/537.36 (KHTML, like Gecko) Chrome/133.0.0.0 Safari/537.36" version="26.2.8">
  <diagram id="C5RBs43oDa-KdzZeNtuy" name="Page-1">
    <mxGraphModel dx="2155" dy="685" grid="1" gridSize="10" guides="1" tooltips="1" connect="1" arrows="1" fold="1" page="0" pageScale="1" pageWidth="827" pageHeight="1169" background="none" math="0" shadow="0">
      <root>
        <mxCell id="WIyWlLk6GJQsqaUBKTNV-0" />
        <mxCell id="WIyWlLk6GJQsqaUBKTNV-1" parent="WIyWlLk6GJQsqaUBKTNV-0" />
        <mxCell id="zkfFHV4jXpPFQw0GAbJ--0" value="&lt;&lt;interface&gt;&gt;&#xa;Abstract Factory" style="swimlane;fontStyle=2;align=center;verticalAlign=top;childLayout=stackLayout;horizontal=1;startSize=40;horizontalStack=0;resizeParent=1;resizeLast=0;collapsible=1;marginBottom=0;rounded=1;shadow=0;strokeWidth=1;labelBackgroundColor=none;fillColor=#F2CC8F;strokeColor=#E07A5F;fontColor=#393C56;fontSize=14;" parent="WIyWlLk6GJQsqaUBKTNV-1" vertex="1">
          <mxGeometry x="260" y="80" width="200" height="152" as="geometry">
            <mxRectangle x="200" y="100" width="160" height="26" as="alternateBounds" />
          </mxGeometry>
        </mxCell>
        <mxCell id="zkfFHV4jXpPFQw0GAbJ--1" value="...." style="text;align=left;verticalAlign=top;spacingLeft=4;spacingRight=4;overflow=hidden;rotatable=0;points=[[0,0.5],[1,0.5]];portConstraint=eastwest;labelBackgroundColor=none;fontColor=#393C56;rounded=1;fontSize=14;" parent="zkfFHV4jXpPFQw0GAbJ--0" vertex="1">
          <mxGeometry y="40" width="200" height="26" as="geometry" />
        </mxCell>
        <mxCell id="zkfFHV4jXpPFQw0GAbJ--4" value="" style="line;html=1;strokeWidth=1;align=left;verticalAlign=middle;spacingTop=-1;spacingLeft=3;spacingRight=3;rotatable=0;labelPosition=right;points=[];portConstraint=eastwest;labelBackgroundColor=none;fillColor=#F2CC8F;strokeColor=#E07A5F;fontColor=#393C56;rounded=1;fontSize=14;" parent="zkfFHV4jXpPFQw0GAbJ--0" vertex="1">
          <mxGeometry y="66" width="200" height="8" as="geometry" />
        </mxCell>
        <mxCell id="zkfFHV4jXpPFQw0GAbJ--5" value="+ createProductA(): ProductA&#xa;&#xa;+ createProductB(): ProductB" style="text;align=left;verticalAlign=top;spacingLeft=4;spacingRight=4;overflow=hidden;rotatable=0;points=[[0,0.5],[1,0.5]];portConstraint=eastwest;labelBackgroundColor=none;fontColor=#393C56;rounded=1;fontSize=14;" parent="zkfFHV4jXpPFQw0GAbJ--0" vertex="1">
          <mxGeometry y="74" width="200" height="56" as="geometry" />
        </mxCell>
        <mxCell id="zkfFHV4jXpPFQw0GAbJ--6" value="ConcreateFactory1" style="swimlane;fontStyle=0;align=center;verticalAlign=top;childLayout=stackLayout;horizontal=1;startSize=26;horizontalStack=0;resizeParent=1;resizeLast=0;collapsible=1;marginBottom=0;rounded=1;shadow=0;strokeWidth=1;labelBackgroundColor=none;fillColor=#F2CC8F;strokeColor=#E07A5F;fontColor=#393C56;fontSize=14;" parent="WIyWlLk6GJQsqaUBKTNV-1" vertex="1">
          <mxGeometry x="120" y="292" width="200" height="118" as="geometry">
            <mxRectangle x="70" y="292" width="160" height="26" as="alternateBounds" />
          </mxGeometry>
        </mxCell>
        <mxCell id="zkfFHV4jXpPFQw0GAbJ--8" value="...." style="text;align=left;verticalAlign=top;spacingLeft=4;spacingRight=4;overflow=hidden;rotatable=0;points=[[0,0.5],[1,0.5]];portConstraint=eastwest;rounded=1;shadow=0;html=0;labelBackgroundColor=none;fontColor=#393C56;fontSize=14;" parent="zkfFHV4jXpPFQw0GAbJ--6" vertex="1">
          <mxGeometry y="26" width="200" height="26" as="geometry" />
        </mxCell>
        <mxCell id="zkfFHV4jXpPFQw0GAbJ--9" value="" style="line;html=1;strokeWidth=1;align=left;verticalAlign=middle;spacingTop=-1;spacingLeft=3;spacingRight=3;rotatable=0;labelPosition=right;points=[];portConstraint=eastwest;labelBackgroundColor=none;fillColor=#F2CC8F;strokeColor=#E07A5F;fontColor=#393C56;rounded=1;fontSize=14;" parent="zkfFHV4jXpPFQw0GAbJ--6" vertex="1">
          <mxGeometry y="52" width="200" height="8" as="geometry" />
        </mxCell>
        <mxCell id="zkfFHV4jXpPFQw0GAbJ--10" value="+ createProductA(): ProductA" style="text;align=left;verticalAlign=top;spacingLeft=4;spacingRight=4;overflow=hidden;rotatable=0;points=[[0,0.5],[1,0.5]];portConstraint=eastwest;fontStyle=0;labelBackgroundColor=none;fontColor=#393C56;rounded=1;fontSize=14;" parent="zkfFHV4jXpPFQw0GAbJ--6" vertex="1">
          <mxGeometry y="60" width="200" height="26" as="geometry" />
        </mxCell>
        <mxCell id="zkfFHV4jXpPFQw0GAbJ--11" value="+ createProductB(): ProductB" style="text;align=left;verticalAlign=top;spacingLeft=4;spacingRight=4;overflow=hidden;rotatable=0;points=[[0,0.5],[1,0.5]];portConstraint=eastwest;labelBackgroundColor=none;fontColor=#393C56;rounded=1;fontSize=14;" parent="zkfFHV4jXpPFQw0GAbJ--6" vertex="1">
          <mxGeometry y="86" width="200" height="26" as="geometry" />
        </mxCell>
        <mxCell id="zkfFHV4jXpPFQw0GAbJ--12" value="" style="endArrow=block;endSize=10;endFill=0;shadow=0;strokeWidth=1;rounded=1;curved=0;edgeStyle=elbowEdgeStyle;elbow=vertical;dashed=1;labelBackgroundColor=none;fontColor=default;strokeColor=#E07A5F;fontSize=14;" parent="WIyWlLk6GJQsqaUBKTNV-1" source="zkfFHV4jXpPFQw0GAbJ--6" target="zkfFHV4jXpPFQw0GAbJ--0" edge="1">
          <mxGeometry width="160" relative="1" as="geometry">
            <mxPoint x="260" y="203" as="sourcePoint" />
            <mxPoint x="260" y="203" as="targetPoint" />
          </mxGeometry>
        </mxCell>
        <mxCell id="zkfFHV4jXpPFQw0GAbJ--16" value="" style="endArrow=block;endSize=10;endFill=0;shadow=0;strokeWidth=1;rounded=1;curved=0;edgeStyle=elbowEdgeStyle;elbow=vertical;dashed=1;exitX=0.5;exitY=0;exitDx=0;exitDy=0;labelBackgroundColor=none;fontColor=default;strokeColor=#E07A5F;fontSize=14;" parent="WIyWlLk6GJQsqaUBKTNV-1" source="MUqr2w1ixIFpPwGGFblP-2" target="zkfFHV4jXpPFQw0GAbJ--0" edge="1">
          <mxGeometry width="160" relative="1" as="geometry">
            <mxPoint x="480" y="292" as="sourcePoint" />
            <mxPoint x="370" y="271" as="targetPoint" />
          </mxGeometry>
        </mxCell>
        <mxCell id="MUqr2w1ixIFpPwGGFblP-2" value="ConcreateFactory2" style="swimlane;fontStyle=0;align=center;verticalAlign=top;childLayout=stackLayout;horizontal=1;startSize=26;horizontalStack=0;resizeParent=1;resizeLast=0;collapsible=1;marginBottom=0;rounded=1;shadow=0;strokeWidth=1;labelBackgroundColor=none;fillColor=#F2CC8F;strokeColor=#E07A5F;fontColor=#393C56;fontSize=14;" vertex="1" parent="WIyWlLk6GJQsqaUBKTNV-1">
          <mxGeometry x="400" y="292" width="200" height="118" as="geometry">
            <mxRectangle x="329" y="292" width="160" height="26" as="alternateBounds" />
          </mxGeometry>
        </mxCell>
        <mxCell id="MUqr2w1ixIFpPwGGFblP-3" value="...." style="text;align=left;verticalAlign=top;spacingLeft=4;spacingRight=4;overflow=hidden;rotatable=0;points=[[0,0.5],[1,0.5]];portConstraint=eastwest;rounded=1;shadow=0;html=0;labelBackgroundColor=none;fontColor=#393C56;fontSize=14;" vertex="1" parent="MUqr2w1ixIFpPwGGFblP-2">
          <mxGeometry y="26" width="200" height="26" as="geometry" />
        </mxCell>
        <mxCell id="MUqr2w1ixIFpPwGGFblP-4" value="" style="line;html=1;strokeWidth=1;align=left;verticalAlign=middle;spacingTop=-1;spacingLeft=3;spacingRight=3;rotatable=0;labelPosition=right;points=[];portConstraint=eastwest;labelBackgroundColor=none;fillColor=#F2CC8F;strokeColor=#E07A5F;fontColor=#393C56;rounded=1;fontSize=14;" vertex="1" parent="MUqr2w1ixIFpPwGGFblP-2">
          <mxGeometry y="52" width="200" height="8" as="geometry" />
        </mxCell>
        <mxCell id="MUqr2w1ixIFpPwGGFblP-5" value="+ createProductA(): ProductA" style="text;align=left;verticalAlign=top;spacingLeft=4;spacingRight=4;overflow=hidden;rotatable=0;points=[[0,0.5],[1,0.5]];portConstraint=eastwest;fontStyle=0;labelBackgroundColor=none;fontColor=#393C56;rounded=1;fontSize=14;" vertex="1" parent="MUqr2w1ixIFpPwGGFblP-2">
          <mxGeometry y="60" width="200" height="26" as="geometry" />
        </mxCell>
        <mxCell id="MUqr2w1ixIFpPwGGFblP-6" value="+ createProductB(): ProductB" style="text;align=left;verticalAlign=top;spacingLeft=4;spacingRight=4;overflow=hidden;rotatable=0;points=[[0,0.5],[1,0.5]];portConstraint=eastwest;labelBackgroundColor=none;fontColor=#393C56;rounded=1;fontSize=14;" vertex="1" parent="MUqr2w1ixIFpPwGGFblP-2">
          <mxGeometry y="86" width="200" height="26" as="geometry" />
        </mxCell>
        <mxCell id="MUqr2w1ixIFpPwGGFblP-15" style="edgeStyle=orthogonalEdgeStyle;rounded=1;orthogonalLoop=1;jettySize=auto;html=1;entryX=0;entryY=0.5;entryDx=0;entryDy=0;dashed=1;endArrow=block;endFill=0;labelBackgroundColor=none;fontColor=default;strokeColor=#E07A5F;fontSize=14;" edge="1" parent="WIyWlLk6GJQsqaUBKTNV-1" source="MUqr2w1ixIFpPwGGFblP-8" target="MUqr2w1ixIFpPwGGFblP-12">
          <mxGeometry relative="1" as="geometry" />
        </mxCell>
        <mxCell id="MUqr2w1ixIFpPwGGFblP-29" value="" style="edgeStyle=orthogonalEdgeStyle;rounded=0;orthogonalLoop=1;jettySize=auto;html=1;strokeColor=#E07A5F;fontColor=#393C56;fillColor=#F2CC8F;endArrow=diamond;endFill=0;" edge="1" parent="WIyWlLk6GJQsqaUBKTNV-1" source="MUqr2w1ixIFpPwGGFblP-8" target="zkfFHV4jXpPFQw0GAbJ--11">
          <mxGeometry relative="1" as="geometry">
            <Array as="points">
              <mxPoint x="100" y="391" />
            </Array>
          </mxGeometry>
        </mxCell>
        <mxCell id="MUqr2w1ixIFpPwGGFblP-8" value="Concrete Product A1" style="swimlane;whiteSpace=wrap;html=1;labelBackgroundColor=none;fillColor=#F2CC8F;strokeColor=#E07A5F;fontColor=#393C56;rounded=1;fontSize=14;" vertex="1" collapsed="1" parent="WIyWlLk6GJQsqaUBKTNV-1">
          <mxGeometry x="20" y="450" width="170" height="30" as="geometry">
            <mxRectangle x="210" y="460" width="200" height="200" as="alternateBounds" />
          </mxGeometry>
        </mxCell>
        <mxCell id="MUqr2w1ixIFpPwGGFblP-16" style="edgeStyle=orthogonalEdgeStyle;rounded=1;orthogonalLoop=1;jettySize=auto;html=1;entryX=0;entryY=0.5;entryDx=0;entryDy=0;dashed=1;endArrow=block;endFill=0;labelBackgroundColor=none;fontColor=default;strokeColor=#E07A5F;fontSize=14;" edge="1" parent="WIyWlLk6GJQsqaUBKTNV-1" source="MUqr2w1ixIFpPwGGFblP-9" target="MUqr2w1ixIFpPwGGFblP-14">
          <mxGeometry relative="1" as="geometry" />
        </mxCell>
        <mxCell id="MUqr2w1ixIFpPwGGFblP-30" style="edgeStyle=orthogonalEdgeStyle;rounded=0;orthogonalLoop=1;jettySize=auto;html=1;strokeColor=#E07A5F;fontColor=#393C56;fillColor=#F2CC8F;endArrow=diamond;endFill=0;" edge="1" parent="WIyWlLk6GJQsqaUBKTNV-1" source="MUqr2w1ixIFpPwGGFblP-9" target="zkfFHV4jXpPFQw0GAbJ--6">
          <mxGeometry relative="1" as="geometry">
            <Array as="points">
              <mxPoint x="10" y="351" />
            </Array>
          </mxGeometry>
        </mxCell>
        <mxCell id="MUqr2w1ixIFpPwGGFblP-9" value="Concrete Product&amp;nbsp;&lt;span style=&quot;background-color: transparent; color: light-dark(rgb(0, 0, 0), rgb(255, 255, 255));&quot;&gt;B1&lt;/span&gt;" style="swimlane;whiteSpace=wrap;html=1;labelBackgroundColor=none;fillColor=#F2CC8F;strokeColor=#E07A5F;fontColor=#393C56;rounded=1;fontSize=14;" vertex="1" collapsed="1" parent="WIyWlLk6GJQsqaUBKTNV-1">
          <mxGeometry x="-80" y="500" width="170" height="30" as="geometry">
            <mxRectangle x="210" y="460" width="200" height="200" as="alternateBounds" />
          </mxGeometry>
        </mxCell>
        <mxCell id="MUqr2w1ixIFpPwGGFblP-18" style="edgeStyle=orthogonalEdgeStyle;rounded=1;orthogonalLoop=1;jettySize=auto;html=1;dashed=1;endArrow=block;endFill=0;labelBackgroundColor=none;fontColor=default;strokeColor=#E07A5F;fontSize=14;" edge="1" parent="WIyWlLk6GJQsqaUBKTNV-1" source="MUqr2w1ixIFpPwGGFblP-10" target="MUqr2w1ixIFpPwGGFblP-14">
          <mxGeometry relative="1" as="geometry">
            <mxPoint x="490" y="515" as="targetPoint" />
          </mxGeometry>
        </mxCell>
        <mxCell id="MUqr2w1ixIFpPwGGFblP-10" value="Concrete Product B2" style="swimlane;whiteSpace=wrap;html=1;labelBackgroundColor=none;fillColor=#F2CC8F;strokeColor=#E07A5F;fontColor=#393C56;rounded=1;fontSize=14;" vertex="1" collapsed="1" parent="WIyWlLk6GJQsqaUBKTNV-1">
          <mxGeometry x="630" y="500" width="170" height="30" as="geometry">
            <mxRectangle x="210" y="460" width="200" height="200" as="alternateBounds" />
          </mxGeometry>
        </mxCell>
        <mxCell id="MUqr2w1ixIFpPwGGFblP-17" style="edgeStyle=orthogonalEdgeStyle;rounded=1;orthogonalLoop=1;jettySize=auto;html=1;dashed=1;endArrow=block;endFill=0;labelBackgroundColor=none;fontColor=default;strokeColor=#E07A5F;fontSize=14;" edge="1" parent="WIyWlLk6GJQsqaUBKTNV-1" source="MUqr2w1ixIFpPwGGFblP-11" target="MUqr2w1ixIFpPwGGFblP-12">
          <mxGeometry relative="1" as="geometry">
            <mxPoint x="490" y="465" as="targetPoint" />
          </mxGeometry>
        </mxCell>
        <mxCell id="MUqr2w1ixIFpPwGGFblP-28" style="edgeStyle=orthogonalEdgeStyle;rounded=0;orthogonalLoop=1;jettySize=auto;html=1;exitX=0.5;exitY=0;exitDx=0;exitDy=0;entryX=1;entryY=0.5;entryDx=0;entryDy=0;strokeColor=#E07A5F;fontColor=#393C56;fillColor=#F2CC8F;endArrow=diamond;endFill=0;" edge="1" parent="WIyWlLk6GJQsqaUBKTNV-1" source="MUqr2w1ixIFpPwGGFblP-11" target="MUqr2w1ixIFpPwGGFblP-5">
          <mxGeometry relative="1" as="geometry" />
        </mxCell>
        <mxCell id="MUqr2w1ixIFpPwGGFblP-11" value="Concrete Product A2" style="swimlane;whiteSpace=wrap;html=1;labelBackgroundColor=none;fillColor=#F2CC8F;strokeColor=#E07A5F;fontColor=#393C56;rounded=1;fontSize=14;" vertex="1" collapsed="1" parent="WIyWlLk6GJQsqaUBKTNV-1">
          <mxGeometry x="540" y="450" width="170" height="30" as="geometry">
            <mxRectangle x="210" y="460" width="200" height="200" as="alternateBounds" />
          </mxGeometry>
        </mxCell>
        <mxCell id="MUqr2w1ixIFpPwGGFblP-12" value="Product A &lt;span style=&quot;font-weight: normal;&quot;&gt;&lt;i&gt;&amp;lt;&amp;lt;interface&amp;gt;&amp;gt;&lt;/i&gt;&lt;/span&gt;" style="swimlane;whiteSpace=wrap;html=1;startSize=23;labelBackgroundColor=none;fillColor=#F2CC8F;strokeColor=#E07A5F;fontColor=#393C56;rounded=1;fontSize=14;" vertex="1" collapsed="1" parent="WIyWlLk6GJQsqaUBKTNV-1">
          <mxGeometry x="265" y="450" width="185" height="30" as="geometry">
            <mxRectangle x="210" y="460" width="200" height="200" as="alternateBounds" />
          </mxGeometry>
        </mxCell>
        <mxCell id="MUqr2w1ixIFpPwGGFblP-14" value="Product B&amp;nbsp;&lt;span style=&quot;font-weight: normal;&quot;&gt;&lt;i&gt;&amp;lt;&amp;lt;interface&amp;gt;&amp;gt;&lt;/i&gt;&lt;/span&gt;" style="swimlane;whiteSpace=wrap;html=1;startSize=23;labelBackgroundColor=none;fillColor=#F2CC8F;strokeColor=#E07A5F;fontColor=#393C56;rounded=1;fontSize=14;" vertex="1" collapsed="1" parent="WIyWlLk6GJQsqaUBKTNV-1">
          <mxGeometry x="265" y="500" width="185" height="30" as="geometry">
            <mxRectangle x="210" y="460" width="200" height="200" as="alternateBounds" />
          </mxGeometry>
        </mxCell>
        <mxCell id="MUqr2w1ixIFpPwGGFblP-27" style="edgeStyle=orthogonalEdgeStyle;rounded=0;orthogonalLoop=1;jettySize=auto;html=1;exitX=0.5;exitY=0;exitDx=0;exitDy=0;endArrow=diamond;endFill=0;labelBackgroundColor=none;strokeColor=#E07A5F;fontColor=default;fontSize=14;" edge="1" parent="WIyWlLk6GJQsqaUBKTNV-1" source="MUqr2w1ixIFpPwGGFblP-10" target="MUqr2w1ixIFpPwGGFblP-3">
          <mxGeometry relative="1" as="geometry" />
        </mxCell>
      </root>
    </mxGraphModel>
  </diagram>
</mxfile>
